<svg xmlns="http://www.w3.org/2000/svg" xmlns:xlink="http://www.w3.org/1999/xlink" id="instagram_1_" width="21.555" height="21.555" data-name="instagram (1)" viewBox="0 0 21.555 21.555">
    <defs>
        <style>
            .cls-1{fill:url(#linear-gradient)}.cls-2{fill:url(#linear-gradient-2)}.cls-3{fill:url(#linear-gradient-3)}
        </style>
        <linearGradient id="linear-gradient" x1=".137" x2=".945" y1=".854" gradientUnits="objectBoundingBox">
            <stop offset="0" stop-color="#ffc107"/>
            <stop offset=".507" stop-color="#f44336"/>
            <stop offset=".99" stop-color="#9c27b0"/>
            <stop offset="1" stop-color="#9c27b0"/>
        </linearGradient>
        <linearGradient id="linear-gradient-2" x1=".134" x2="1" y1="1" y2="-.048" xlink:href="#linear-gradient"/>
        <linearGradient id="linear-gradient-3" x1="-.646" x2="1.334" y1="2.045" y2="-.375" xlink:href="#linear-gradient"/>
    </defs>
    <path id="Path_21" d="M14.819 0H6.736A6.737 6.737 0 0 0 0 6.736v8.083a6.737 6.737 0 0 0 6.736 6.736h8.083a6.737 6.737 0 0 0 6.736-6.736V6.736A6.737 6.737 0 0 0 14.819 0zm4.715 14.819a4.72 4.72 0 0 1-4.715 4.715H6.736a4.72 4.72 0 0 1-4.715-4.715V6.736a4.72 4.72 0 0 1 4.715-4.715h8.083a4.72 4.72 0 0 1 4.715 4.715z" class="cls-1" data-name="Path 21"/>
    <path id="Path_22" d="M133.125 128a5.125 5.125 0 1 0 5.125 5.125 5.125 5.125 0 0 0-5.125-5.125zm0 8.328a3.2 3.2 0 1 1 3.2-3.2 3.208 3.208 0 0 1-3.2 3.2z" class="cls-2" data-name="Path 22" transform="translate(-122.348 -122.348)"/>
    <circle id="Ellipse_19" cx=".683" cy=".683" r=".683" class="cls-3" data-name="Ellipse 19" transform="translate(15.907 4.281)"/>
</svg>
